<svg width="200" height="200" viewBox="0 0 200 200" fill="none" xmlns="http://www.w3.org/2000/svg">
<path d="M99.9965 189.993C149.7 189.993 189.993 149.701 189.993 99.9966C189.993 50.2927 149.7 9.99966 99.9965 9.99966C50.2926 9.99966 9.99963 50.2927 9.99963 99.9966C9.99963 149.701 50.2926 189.993 99.9965 189.993Z" fill="url(#paint0_linear_260_2655)"/>
<path opacity="0.95" d="M99.9965 49.9983C83.4286 49.9983 69.9976 63.4293 69.9976 79.9973C69.9976 96.5652 99.9965 129.996 99.9965 129.996C99.9965 129.996 129.995 96.5652 129.995 79.9973C129.995 63.4293 116.565 49.9983 99.9965 49.9983Z" fill="white"/>
<path d="M99.9968 89.9976C105.52 89.9976 109.997 85.5205 109.997 79.9976C109.997 74.4748 105.52 69.9976 99.9968 69.9976C94.474 69.9976 89.9968 74.4748 89.9968 79.9976C89.9968 85.5205 94.474 89.9976 99.9968 89.9976Z" fill="url(#paint1_linear_260_2655)"/>
<path opacity="0.6" d="M99.9968 145.996C104.415 145.996 107.997 142.414 107.997 137.996C107.997 133.577 104.415 129.996 99.9968 129.996C95.5785 129.996 91.9968 133.577 91.9968 137.996C91.9968 142.414 95.5785 145.996 99.9968 145.996Z" fill="white"/>
<path opacity="0.9" d="M99.9967 141.995C102.206 141.995 103.997 140.205 103.997 137.995C103.997 135.786 102.206 133.995 99.9967 133.995C97.7876 133.995 95.9967 135.786 95.9967 137.995C95.9967 140.205 97.7876 141.995 99.9967 141.995Z" fill="white"/>
<defs>
<linearGradient id="paint0_linear_260_2655" x1="9.99963" y1="99.9967" x2="189.993" y2="99.9967" gradientUnits="userSpaceOnUse">
<stop stop-color="#9178E9"/>
<stop offset="1" stop-color="#F19089"/>
</linearGradient>
<linearGradient id="paint1_linear_260_2655" x1="89.9968" y1="79.9976" x2="109.997" y2="79.9976" gradientUnits="userSpaceOnUse">
<stop stop-color="#9178E9"/>
<stop offset="1" stop-color="#F19089"/>
</linearGradient>
</defs>
</svg>
