<svg width="96" height="32" viewBox="0 0 96 32" fill="none" xmlns="http://www.w3.org/2000/svg">
  <path
    d="M27.2728 21.9324V10.0672C27.2728 8.85102 26.6253 7.72382 25.5758 7.11573L15.3348 1.18312C14.2853 0.575028 12.9904 0.575028 11.9379 1.18312L1.69697 7.11573C0.647452 7.72382 0 8.84805 0 10.0672V21.9324C0 23.1486 0.647452 24.2758 1.69697 24.8839L11.9379 30.8165C12.9875 31.4246 14.2824 31.4246 15.3348 30.8165L25.5758 24.8839C26.6253 24.2758 27.2728 23.1516 27.2728 21.9324Z"
    fill="url(#paint0_linear_2012_31969)" />
  <path
    d="M18.5986 24.9244C17.5643 24.9244 16.5845 24.5329 15.8436 23.821C15.5472 23.5362 15.2992 23.2099 15.1087 22.854C15.018 22.6879 14.7851 22.2073 14.6883 21.5251C14.6309 21.1365 14.652 20.9021 14.6732 20.653C14.6883 20.4661 14.7095 20.2377 14.6944 19.8313C14.6823 19.4872 14.6551 19.2618 14.6127 19.1669C14.525 18.9622 14.3768 18.8198 14.2196 18.6715C14.0744 18.535 13.9172 18.3808 13.7025 18.2918C13.5785 18.2414 13.4484 18.2176 13.2851 18.2176C13.1763 18.2176 13.0734 18.2265 12.9706 18.2354C12.3688 18.2888 12.0029 18.36 11.6793 18.4253C11.4404 18.4727 11.2257 18.5143 10.9777 18.5439C10.8295 18.5617 10.5604 18.5884 10.2095 18.5884C9.52911 18.5884 8.5009 18.4816 7.47873 17.9685C7.47873 17.9685 6.70757 17.5739 6.09971 16.9896C3.82251 14.8064 3.78017 11.2112 6.00596 8.9776C7.10373 7.8771 8.57045 7.27197 10.14 7.27197C11.7095 7.27197 13.0916 7.84447 14.1773 8.88564C14.8033 9.4878 15.1783 10.1641 15.2176 10.2412C15.7861 11.3595 15.7559 12.4066 15.7377 13.0978C15.7286 13.3499 15.7166 13.4419 15.6893 13.6406C15.6621 13.8305 15.6198 14.133 15.5502 14.9013C15.4595 15.8654 15.4655 16.1116 15.5865 16.3607C15.7045 16.6069 15.8829 16.779 16.0008 16.8947C16.1611 17.0489 16.3274 17.2121 16.5542 17.2892C16.5542 17.2892 16.6178 17.304 16.8415 17.304C16.9776 17.304 17.153 17.2981 17.3768 17.2862C17.7427 17.2684 17.9786 17.2447 18.1631 17.2269C18.3657 17.2061 18.5139 17.1943 18.6712 17.1943C18.7982 17.1943 18.9252 17.2032 19.0885 17.2239C19.6661 17.2981 20.0895 17.4672 20.2891 17.5621C20.6853 17.743 21.0542 17.9922 21.3717 18.2977C22.1217 19.0185 22.5451 19.9856 22.5572 21.0178C22.5693 22.0501 22.1701 23.026 21.4322 23.7646C20.6853 24.5151 19.6812 24.9304 18.6107 24.9304L18.5986 24.9244Z"
    fill="white" />
  <path d="M76.8142 21.8649H73.5662V6.35645H76.8142V21.8649Z" fill="#A876E2" />
  <path
    d="M95.2711 24.4358C94.2678 24.234 93.3764 24.0323 92.604 23.8269C91.8317 23.6216 91.0991 23.3845 90.4062 23.119C89.7132 22.8535 88.9698 22.5349 88.1758 22.1632H87.6922C86.4904 22.1632 85.3825 21.9614 84.3647 21.5579C83.347 21.1543 82.4664 20.5915 81.7194 19.8693C80.9687 19.1436 80.3913 18.294 79.9798 17.317C79.5684 16.34 79.3627 15.2709 79.3627 14.1098C79.3627 12.9488 79.5684 11.8797 79.9798 10.8991C80.3913 9.91504 80.9687 9.06191 81.7194 8.33623C82.4664 7.61054 83.347 7.04416 84.3647 6.64415C85.3825 6.24413 86.4904 6.0459 87.6922 6.0459C88.894 6.0459 89.9984 6.24767 91.0125 6.65123C92.023 7.05478 92.9036 7.61762 93.6434 8.34331C94.3869 9.06899 94.9643 9.91858 95.3793 10.8956C95.7944 11.8726 96.0001 12.9452 96.0001 14.1098C96.0001 15.2001 95.816 16.2126 95.4443 17.1436C95.069 18.0781 94.5493 18.8994 93.878 19.6109C93.2067 20.3224 92.4128 20.8817 91.4997 21.2959C92.0122 21.4127 92.503 21.5118 92.9758 21.5968C93.4449 21.6782 93.9249 21.7455 94.4157 21.7915C94.9066 21.841 95.4226 21.8764 95.9712 21.8941L95.2747 24.4394L95.2711 24.4358ZM87.6922 19.3914C88.4032 19.3914 89.06 19.2569 89.6699 18.9879C90.2799 18.7188 90.8068 18.3436 91.2579 17.8657C91.7054 17.3878 92.0591 16.8285 92.3081 16.1913C92.5571 15.5541 92.6834 14.8603 92.6834 14.1098C92.6834 13.3594 92.5571 12.662 92.3081 12.0213C92.0591 11.3806 91.709 10.8213 91.2579 10.3398C90.8104 9.86194 90.2799 9.49025 89.6699 9.22475C89.0636 8.95926 88.4032 8.82828 87.6922 8.82828C86.9812 8.82828 86.3136 8.9628 85.7037 9.22475C85.0974 9.49025 84.5668 9.86194 84.1121 10.3398C83.6574 10.8177 83.3073 11.3806 83.0583 12.0213C82.8093 12.662 82.683 13.3594 82.683 14.1098C82.683 14.8603 82.8093 15.5577 83.0583 16.1984C83.3073 16.8391 83.661 17.3984 84.1121 17.8799C84.5668 18.3578 85.0938 18.7295 85.7037 18.9949C86.3136 19.2604 86.974 19.3914 87.6922 19.3914Z"
    fill="#A876E2" />
  <path
    d="M37.0979 22.4763C37.9388 23.3861 39.0432 23.7472 40.3604 23.7472C41.6777 23.7472 43.2332 23.1772 43.2332 21.163V20.1258C42.4103 21.1418 41.2879 21.7365 40.014 21.7365C37.4011 21.7365 35.4125 19.9347 35.4125 16.5257C35.4125 13.1168 37.3758 11.3149 40.014 11.3149C41.2663 11.3149 42.3887 11.8459 43.2332 12.8831V11.5698H45.9977V21.1028C45.9977 25.0003 42.93 25.9561 40.3604 25.9561C38.5668 25.9561 37.1629 25.5525 35.8673 24.4304L37.0979 22.4799V22.4763ZM43.2332 14.869C42.7785 14.1929 41.786 13.7044 40.8801 13.7044C39.3247 13.7044 38.2456 14.7628 38.2456 16.5222C38.2456 18.2815 39.3247 19.34 40.8801 19.34C41.786 19.34 42.7821 18.8302 43.2332 18.1753V14.869Z"
    fill="#05050B" />
  <path
    d="M53.4399 11.3135C56.5509 11.3135 58.6657 13.6003 58.6657 16.949V17.5437H50.9136C51.0869 18.8358 52.1443 19.9155 53.9163 19.9155C54.8871 19.9155 56.0348 19.5332 56.7024 18.8995L57.9114 20.6376C56.854 21.5899 55.2336 22.0572 53.6132 22.0572C50.4373 22.0572 48.0409 19.9615 48.0409 16.6765C48.0409 13.71 50.264 11.3135 53.4399 11.3135ZM50.8703 15.7207H56.0095C55.9445 14.7472 55.2552 13.4551 53.4399 13.4551C51.7329 13.4551 51.0003 14.7047 50.8703 15.7207Z"
    fill="#05050B" />
  <path
    d="M59.9799 16.6765C59.9799 13.7737 62.0514 11.3135 65.4872 11.3135C68.9229 11.3135 71.0161 13.7737 71.0161 16.6765C71.0161 19.5792 68.9446 22.0572 65.4872 22.0572C62.0298 22.0572 59.9799 19.6004 59.9799 16.6765ZM68.165 16.6765C68.165 15.087 67.1942 13.71 65.4872 13.71C63.7801 13.71 62.831 15.087 62.831 16.6765C62.831 18.2659 63.7801 19.6642 65.4872 19.6642C67.1942 19.6642 68.165 18.2871 68.165 16.6765Z"
    fill="#05050B" />
  <defs>
    <linearGradient id="paint0_linear_2012_31969" x1="13.9807" y1="38.2304" x2="13.1039"
      y2="-1.06968" gradientUnits="userSpaceOnUse">
      <stop stop-color="#F19089" />
      <stop offset="0.48" stop-color="#A35CC7" />
      <stop offset="1" stop-color="#9178E9" />
    </linearGradient>
  </defs>
</svg>
